<!-- Generated by IcoMoon.io -->
<svg version="1.1" xmlns="http://www.w3.org/2000/svg" width="32" height="32" viewBox="0 0 32 32">
<title>twitter-footer</title>
<path fill="#fff" d="M32 6.078c-1.1 0.493-2.376 0.857-3.713 1.028l-0.068 0.007c1.345-0.81 2.359-2.053 2.859-3.533l0.014-0.046 0.013-0.046c-1.173 0.713-2.538 1.259-3.993 1.559l-0.083 0.014-0.084 0.014c-1.2-1.279-2.9-2.076-4.787-2.076-3.622 0-6.558 2.936-6.558 6.558v0 0.004c0 0.52 0.043 1.021 0.152 1.496-5.454-0.266-10.28-2.88-13.522-6.861-0.567 0.947-0.902 2.089-0.902 3.31 0 0.001 0 0.002 0 0.003v0.001c0.003 2.262 1.149 4.256 2.891 5.436l0.023 0.015c-1.104-0.029-2.132-0.33-3.026-0.84l0.032 0.017 0.033 0.017v0.072c0.003 3.15 2.215 5.782 5.169 6.432l0.087 0.016c-0.494 0.137-1.060 0.215-1.645 0.215-0.006 0-0.012 0-0.018-0h-0.057c-0.419 0-0.843-0.024-1.242-0.112 0.85 2.598 3.261 4.509 6.13 4.57-2.204 1.745-5.025 2.8-8.092 2.8-0.011 0-0.021 0-0.032-0h-0.072c-0.531 0-1.055-0.034-1.569-0.099l0.061 0.006c2.826 1.846 6.287 2.944 10.004 2.944h0.060c12.072 0 18.672-10 18.672-18.669 0-0.288-0.010-0.57-0.024-0.848 1.283-0.927 2.364-2.039 3.229-3.309l0.029-0.046 0.030-0.047z"></path>
</svg>
