<!-- Generated by IcoMoon.io -->
<svg version="1.1" xmlns="http://www.w3.org/2000/svg" width="36" height="32" viewBox="0 0 36 32">
<title>twitter</title>
<path fill="#afb1b8" d="M35.556 4.976c-1.222 0.548-2.64 0.952-4.125 1.142l-0.076 0.008c1.495-0.901 2.621-2.282 3.178-3.926l0.015-0.051 0.015-0.051c-1.303 0.793-2.82 1.399-4.437 1.732l-0.185 0.032c-1.333-1.421-3.223-2.306-5.319-2.306-4.024 0-7.287 3.262-7.287 7.287 0 0 0 0 0 0v0 0.004c0 0.578 0.048 1.134 0.169 1.662-6.060-0.295-11.422-3.2-15.024-7.623-0.63 1.053-1.003 2.323-1.003 3.68 0 0 0 0.001 0 0.001v0.001c0.003 2.514 1.276 4.73 3.211 6.043l0.026 0.016c-1.227-0.032-2.369-0.367-3.362-0.934l0.035 0.018 0.036 0.019v0.080c0.005 3.498 2.462 6.421 5.743 7.143l0.049 0.009 0.048 0.009c-0.549 0.152-1.178 0.24-1.829 0.24-0.009 0-0.018-0-0.027-0h-0.057c-0.466 0-0.937-0.027-1.38-0.124 0.944 2.887 3.623 5.010 6.811 5.077-2.449 1.939-5.584 3.111-8.992 3.111-0.012 0-0.023 0-0.035-0h-0.080c-0.59 0-1.172-0.038-1.743-0.11l0.068 0.007c3.14 2.051 6.986 3.271 11.116 3.271h0.066c13.413 0 20.747-11.111 20.747-20.743 0-0.32-0.011-0.633-0.027-0.942 1.425-1.030 2.626-2.265 3.587-3.676l0.033-0.051 0.033-0.052z"></path>
</svg>
